<svg xmlns="http://www.w3.org/2000/svg" version="1.1" xmlns:xlink="http://www.w3.org/1999/xlink" xmlns:svgjs="http://svgjs.dev/svgjs" width="1000" height="1000" viewBox="0 0 1000 1000"><rect width="1000" height="1000" fill="#ffffff"></rect><g transform="matrix(0.7,0,0,0.7,149.57576362627935,335.86573500728053)"><svg viewBox="0 0 396 186" data-background-color="#212529" preserveAspectRatio="xMidYMid meet" height="469" width="1000" xmlns="http://www.w3.org/2000/svg" xmlns:xlink="http://www.w3.org/1999/xlink"><defs></defs><g id="tight-bounds" transform="matrix(1,0,0,1,0.23999657713341094,-0.008914746738270196)"><svg viewBox="0 0 395.52 186.01782922365618" height="186.01782922365618" width="395.52"><g><svg viewBox="0 0 395.52 186.01782922365618" height="186.01782922365618" width="395.52"><g transform="matrix(1,0,0,1,0,112.6057261969541)"><svg viewBox="0 0 395.52 73.41210302670208" height="73.41210302670208" width="395.52"><g><svg viewBox="0 0 395.52 73.41210302670208" height="73.41210302670208" width="395.52"><g><svg viewBox="0 0 395.52 47.23139926994611" height="47.23139926994611" width="395.52"><g transform="matrix(1,0,0,1,0,0)"><svg width="395.52" viewBox="3.8499999046325684 -34 287.6199951171875 34.349998474121094" height="47.23139926994611" data-palette-color="#57ab26"><path d="M7.9-15.05L7.9-3.55 22.65-3.55 22.65 0 3.85 0 3.85-33.7 22.4-33.7 22.4-30.15 7.9-30.15 7.9-18.6 20.7-18.6 20.7-15.05 7.9-15.05ZM32.95-33.7L32.95-3.65 47.3-3.65 47.3 0 28.9 0 28.9-33.7 32.95-33.7ZM57.1 0L53.05 0 53.05-33.7 57.1-33.7 57.1 0ZM62.14-33.7L84.39-33.7 84.39-30.15 75.29-30.15 75.29 0 71.24 0 71.24-30.15 62.14-30.15 62.14-33.7ZM93.24-15.05L93.24-3.55 107.99-3.55 107.99 0 89.19 0 89.19-33.7 107.74-33.7 107.74-30.15 93.24-30.15 93.24-18.6 106.04-18.6 106.04-15.05 93.24-15.05ZM130.78 0L126.74 0 126.74-33.7 130.78-33.7 130.78 0ZM142.83 0L138.78 0 138.78-33.7 143.88-33.7 152.33-19.5 160.88-4.9Q160.68-9.75 160.68-19.45L160.68-19.45 160.68-33.7 164.73-33.7 164.73 0 159.63 0 151.18-14.1Q148.63-18.35 146.48-22.03 144.33-25.7 143.43-27.3L143.43-27.3 142.58-28.85Q142.83-23.65 142.83-14.2L142.83-14.2 142.83 0ZM190.08-32.45L190.08-32.45 190.08-28.2Q187.03-30.2 182.78-30.2L182.78-30.2Q179.73-30.2 177.93-28.78 176.13-27.35 176.13-25.05L176.13-25.05Q176.13-23.85 176.61-22.9 177.08-21.95 178.28-21.13 179.48-20.3 180.33-19.88 181.18-19.45 182.98-18.65L182.98-18.65Q184.68-17.9 185.58-17.48 186.48-17.05 187.91-16.13 189.33-15.2 190.06-14.33 190.78-13.45 191.36-12.03 191.93-10.6 191.93-8.95L191.93-8.95Q191.93-4.5 188.88-2.08 185.83 0.35 181.03 0.35L181.03 0.35Q175.73 0.35 172.03-1.8L172.03-1.8 172.03-6.15Q175.68-3.4 180.93-3.4L180.93-3.4Q184.08-3.4 185.88-4.8 187.68-6.2 187.68-8.85L187.68-8.85Q187.68-9.95 187.26-10.83 186.83-11.7 185.86-12.43 184.88-13.15 184.01-13.63 183.13-14.1 181.63-14.8L181.63-14.8Q181.33-14.95 180.73-15.2L180.73-15.2Q178.58-16.15 177.46-16.75 176.33-17.35 174.81-18.53 173.28-19.7 172.58-21.25 171.88-22.8 171.88-24.85L171.88-24.85Q171.88-29.15 174.96-31.58 178.03-34 182.68-34L182.68-34Q187.03-34 190.08-32.45ZM202.98 0L198.93 0 198.93-33.7 202.98-33.7 202.98 0ZM215.08-30.1L215.08-3.55 221.13-3.55Q227.38-3.55 230.58-7.43 233.78-11.3 233.78-17.1L233.78-17.1Q233.78-22.6 230.2-26.35 226.63-30.1 220.93-30.1L220.93-30.1 215.08-30.1ZM210.98 0L210.98-33.7 220.98-33.7Q228.43-33.7 233.2-29.08 237.98-24.45 237.98-17.1L237.98-17.1Q237.98-9.8 233.55-4.9 229.13 0 221.18 0L221.18 0 210.98 0ZM248.07-15.05L248.07-3.55 262.82-3.55 262.82 0 244.02 0 244.02-33.7 262.57-33.7 262.57-30.15 248.07-30.15 248.07-18.6 260.87-18.6 260.87-15.05 248.07-15.05ZM277.77-30.2L273.12-30.2 273.12-16.75 278.22-16.75Q281.67-16.75 283.5-18.63 285.32-20.5 285.32-23.45L285.32-23.45Q285.32-30.2 277.77-30.2L277.77-30.2ZM282.62-13.95L291.47 0 286.62 0 278.37-13.3 277.97-13.3 273.12-13.3 273.12 0 269.07 0 269.07-33.7 277.52-33.7Q283.37-33.7 286.4-30.95 289.42-28.2 289.42-23.35L289.42-23.35Q289.32-19.85 287.57-17.4 285.82-14.95 282.62-13.95L282.62-13.95Z" opacity="1" transform="matrix(1,0,0,1,0,0)" fill="#000000" class="undefined-text-0" data-fill-palette-color="primary" id="text-0"></path></svg></g></svg></g><g transform="matrix(1,0,0,1,75.54431999999998,58.381599083997905)"><svg viewBox="0 0 244.43136 15.030503942704186" height="15.030503942704186" width="244.43136"><g transform="matrix(1,0,0,1,0,0)"><svg width="244.43136" viewBox="4 -33.20000076293945 691.0900268554688 42.5" height="15.030503942704186" data-palette-color="#57ab26"><path d="M35.95 0.5L35.95 0.5Q33.95 0.5 32.02-0.13 30.1-0.75 27.65-3.2L27.65-3.2 24.05-6.8Q21.85-9.05 19.23-10.1 16.6-11.15 12.65-11.15L12.65-11.15 11.1-11.15 11.1 0 4.5 0 4.5-25.4 4-29.45 26.15-29.45Q29.35-29.45 31.18-28.6 33-27.75 33.88-26.38 34.75-25 35-23.45 35.25-21.9 35.25-20.5L35.25-20.5 35.25-19.55Q35.25-18.45 34.95-17.1 34.65-15.75 33.8-14.45 32.95-13.15 31.38-12.25 29.8-11.35 27.25-11.2L27.25-11.2Q27.9-10.85 28.9-10.13 29.9-9.4 30.98-8.55 32.05-7.7 32.95-7 33.85-6.3 34.35-6L34.35-6Q36.15-4.95 37.55-4.55 38.95-4.15 39.85-4.1 40.75-4.05 40.9-4.05L40.9-4.05 39.9 0Q39.45 0.15 38.4 0.33 37.35 0.5 35.95 0.5ZM18.6-15.7L18.6-15.7Q20.5-15.7 22-15.78 23.5-15.85 24.7-15.95L24.7-15.95Q26.9-16.2 27.78-17.18 28.65-18.15 28.65-19.7L28.65-19.7 28.65-20.85Q28.65-22.45 27.8-23.55 26.95-24.65 24.75-24.65L24.75-24.65 11.1-24.65 11.1-15.95Q13.3-15.8 15.15-15.75 17-15.7 18.6-15.7ZM53.35 0L50.85 0Q47.05 0 45.35-1.78 43.65-3.55 43.65-6.65L43.65-6.65Q43.65-9.9 45.42-11.65 47.2-13.4 50.85-13.4L50.85-13.4 53.4-13.4Q57.15-13.4 60.15-13.2 63.15-13 65.1-12.8L65.1-12.8 65.1-16.1Q65.1-16.55 65-17.03 64.9-17.5 64.4-17.8 63.9-18.1 62.7-18.1L62.7-18.1 60.2-18.1Q54.75-18.1 51.1-17.93 47.45-17.75 46.15-17.6L46.15-17.6 45.6-21.4Q45.6-22.1 49.4-22.25 53.2-22.4 62.1-22.4L62.1-22.4 64.6-22.4Q67.1-22.4 68.45-21.7 69.8-21 70.37-19.95 70.95-18.9 71.07-17.82 71.2-16.75 71.2-16L71.2-16 71.2 0 67.1 0 65.15-1Q63.05-0.65 60.1-0.33 57.15 0 53.35 0L53.35 0ZM52.15-4.3L52.15-4.3 63.6-4.3Q64.7-4.3 64.9-4.5 65.1-4.7 65.1-5.75L65.1-5.75 65.1-9.6 52.15-9.6Q50.8-9.6 50.27-8.95 49.75-8.3 49.75-6.9L49.75-6.9Q49.75-5.5 50.35-4.9 50.95-4.3 52.15-4.3ZM80.5-25.55L80.5-25.55Q78.65-25.55 77.8-26.3 76.95-27.05 76.95-28.8L76.95-28.8Q76.95-30.6 77.77-31.33 78.6-32.05 80.5-32.05L80.5-32.05Q82.4-32.05 83.25-31.33 84.1-30.6 84.1-28.8L84.1-28.8Q84.1-27.1 83.25-26.33 82.4-25.55 80.5-25.55ZM83.55 0L77.45 0 77.45-22.4 83.55-22.4 83.55 0ZM98.69 0L96.19 0Q93.69 0 92.34-0.65 90.99-1.3 90.42-2.3 89.84-3.3 89.72-4.4 89.59-5.5 89.59-6.4L89.59-6.4 89.59-16Q89.59-16.75 89.72-17.82 89.84-18.9 90.42-19.95 90.99-21 92.37-21.7 93.74-22.4 96.19-22.4L96.19-22.4 98.74-22.4Q103.34-22.4 106.17-22.23 108.99-22.05 110.49-21.85L110.49-21.85 110.49-31.7 116.59-31.7 116.59 0 112.49 0 110.54-1Q108.44-0.65 105.49-0.33 102.54 0 98.69 0L98.69 0ZM98.09-4.3L98.09-4.3 108.94-4.3Q109.99-4.3 110.24-4.55 110.49-4.8 110.49-5.8L110.49-5.8 110.49-17.75Q108.79-17.85 106.19-17.98 103.59-18.1 100.64-18.1L100.64-18.1 98.09-18.1Q95.69-18.1 95.69-16.1L95.69-16.1 95.69-6.3Q95.69-4.3 98.09-4.3ZM140.19 9.3L134.09 9.3 134.09-22.4 138.19-22.4 139.44-21.75Q141.69-22 144.81-22.2 147.94-22.4 151.94-22.4L151.94-22.4 154.49-22.4Q156.99-22.4 158.34-21.75 159.69-21.1 160.26-20.1 160.84-19.1 160.96-18 161.09-16.9 161.09-16L161.09-16 161.09-6.4Q161.09-5.65 160.96-4.58 160.84-3.5 160.26-2.45 159.69-1.4 158.34-0.7 156.99 0 154.49 0L154.49 0 151.94 0Q148.14 0 145.19-0.2 142.24-0.4 140.19-0.6L140.19-0.6 140.19 9.3ZM141.74-4.3L141.74-4.3 152.59-4.3Q153.54-4.3 154.26-4.8 154.99-5.3 154.99-6.3L154.99-6.3 154.99-16.1Q155.04-17.2 154.46-17.65 153.89-18.1 152.59-18.1L152.59-18.1 150.09-18.1Q146.89-18.1 144.41-17.98 141.94-17.85 140.19-17.7L140.19-17.7 140.19-5.85Q140.19-4.75 140.41-4.53 140.64-4.3 141.74-4.3ZM182.74 0L172.69 0Q170.19 0 168.84-0.65 167.49-1.3 166.91-2.3 166.34-3.3 166.21-4.4 166.09-5.5 166.09-6.4L166.09-6.4 166.09-16Q166.09-16.75 166.21-17.82 166.34-18.9 166.91-19.95 167.49-21 168.86-21.7 170.24-22.4 172.69-22.4L172.69-22.4 183.44-22.4Q186.74-22.4 188.61-21.78 190.49-21.15 191.26-19.75 192.04-18.35 192.04-16L192.04-16 192.04-8.6 183.29-8.6Q178.79-8.6 175.96-8.8 173.14-9 172.19-9.05L172.19-9.05 172.19-6.3Q172.14-4.3 174.59-4.3L174.59-4.3 177.14-4.3Q179.84-4.3 182.41-4.38 184.99-4.45 187.14-4.58 189.29-4.7 190.59-4.8L190.59-4.8 192.59-1.55Q192.59 0 182.74 0L182.74 0ZM172.19-16.1L172.19-12.9 185.94-12.9 185.94-16.1Q185.94-17.1 185.71-17.5 185.49-17.9 184.39-18 183.29-18.1 180.64-18.1L180.64-18.1 174.59-18.1Q172.19-18.1 172.19-16.1L172.19-16.1ZM203.68 0L197.58 0 197.58-22.4 201.68-22.4 203.58-21.4Q204.88-22.1 206.38-22.5 207.88-22.9 210.18-22.9L210.18-22.9Q213.83-22.9 216.11-22.1 218.38-21.3 219.13-20.9L219.13-20.9 217.38-16.55Q216.78-16.85 215.41-17.32 214.03-17.8 212.18-18.2 210.33-18.6 208.13-18.6L208.13-18.6 207.58-18.6Q205.18-18.6 204.46-17.65 203.73-16.7 203.68-14.5L203.68-14.5 203.68 0ZM229.83 0L223.73 0 223.73-18.1 220.63-18.1 220.63-22.35 223.73-22.35 223.73-26.8Q223.73-28.5 224.41-29.95 225.08-31.4 226.66-32.3 228.23-33.2 230.83-33.2L230.83-33.2 233.33-33.2Q239.33-33.2 241.96-32.65 244.58-32.1 244.58-31.7L244.58-31.7 243.08-27.9Q242.23-28.25 240.03-28.58 237.83-28.9 234.73-28.9L234.73-28.9 232.23-28.9Q230.98-28.9 230.41-28.45 229.83-28 229.83-26.9L229.83-26.9 229.83-22.35 240.23-22.35 240.23-18.1 229.83-18.1 229.83 0ZM264.48 0L250.68 0Q247.33 0 245.7-1.35 244.08-2.7 244.08-5.75L244.08-5.75 244.08-16Q244.08-16.75 244.2-17.82 244.33-18.9 244.9-19.95 245.48-21 246.85-21.7 248.23-22.4 250.68-22.4L250.68-22.4 264.48-22.4Q266.98-22.4 268.33-21.7 269.68-21 270.25-19.95 270.83-18.9 270.95-17.82 271.08-16.75 271.08-16L271.08-16 271.08-6.4Q271.08-5.5 270.95-4.4 270.83-3.3 270.23-2.3 269.63-1.3 268.28-0.65 266.93 0 264.48 0L264.48 0ZM252.58-4.3L252.58-4.3 262.58-4.3Q265.03-4.3 265.03-6.3L265.03-6.3 265.03-16.1Q265.03-18.1 262.58-18.1L262.58-18.1 252.58-18.1Q250.18-18.1 250.18-16.1L250.18-16.1 250.18-6.3Q250.18-4.3 252.58-4.3ZM282.68 0L276.58 0 276.58-22.4 280.68-22.4 282.58-21.4Q283.88-22.1 285.38-22.5 286.88-22.9 289.18-22.9L289.18-22.9Q292.83-22.9 295.1-22.1 297.38-21.3 298.13-20.9L298.13-20.9 296.38-16.55Q295.78-16.85 294.4-17.32 293.03-17.8 291.18-18.2 289.33-18.6 287.13-18.6L287.13-18.6 286.58-18.6Q284.18-18.6 283.45-17.65 282.73-16.7 282.68-14.5L282.68-14.5 282.68 0ZM307.72 0L301.62 0 301.62-22.4 305.72-22.4 306.97-21.8Q308.42-22.05 310.52-22.23 312.62-22.4 315.52-22.4L315.52-22.4 318.02-22.4Q319.47-22.4 320.82-22.03 322.17-21.65 322.82-20.95L322.82-20.95Q324.12-21.6 326.42-22 328.72-22.4 332.42-22.4L332.42-22.4 334.92-22.4Q337.42-22.4 338.77-21.7 340.12-21 340.7-19.95 341.27-18.9 341.4-17.82 341.52-16.75 341.52-16L341.52-16 341.52 0 335.42 0 335.42-16.1Q335.42-18.1 333.02-18.1L333.02-18.1 326.02-18.1Q325.22-18.1 324.92-17.9 324.62-17.7 324.62-17L324.62-17 324.62 0 318.52 0 318.52-16.1Q318.52-18.1 316.12-18.1L316.12-18.1 309.22-18.1Q308.27-18.1 308-17.93 307.72-17.75 307.72-17L307.72-17 307.72 0ZM356.22 0L353.72 0Q349.92 0 348.22-1.78 346.52-3.55 346.52-6.65L346.52-6.65Q346.52-9.9 348.3-11.65 350.07-13.4 353.72-13.4L353.72-13.4 356.27-13.4Q360.02-13.4 363.02-13.2 366.02-13 367.97-12.8L367.97-12.8 367.97-16.1Q367.97-16.55 367.87-17.03 367.77-17.5 367.27-17.8 366.77-18.1 365.57-18.1L365.57-18.1 363.07-18.1Q357.62-18.1 353.97-17.93 350.32-17.75 349.02-17.6L349.02-17.6 348.47-21.4Q348.47-22.1 352.27-22.25 356.07-22.4 364.97-22.4L364.97-22.4 367.47-22.4Q369.97-22.4 371.32-21.7 372.67-21 373.25-19.95 373.82-18.9 373.95-17.82 374.07-16.75 374.07-16L374.07-16 374.07 0 369.97 0 368.02-1Q365.92-0.65 362.97-0.33 360.02 0 356.22 0L356.22 0ZM355.02-4.3L355.02-4.3 366.47-4.3Q367.57-4.3 367.77-4.5 367.97-4.7 367.97-5.75L367.97-5.75 367.97-9.6 355.02-9.6Q353.67-9.6 353.15-8.95 352.62-8.3 352.62-6.9L352.62-6.9Q352.62-5.5 353.22-4.9 353.82-4.3 355.02-4.3ZM385.92 0L379.82 0 379.82-22.4 383.92-22.4 385.92-21.4Q388.02-21.8 390.97-22.1 393.92-22.4 397.72-22.4L397.72-22.4 400.22-22.4Q402.72-22.4 404.07-21.7 405.42-21 405.99-19.95 406.57-18.9 406.69-17.82 406.82-16.75 406.82-16L406.82-16 406.82 0 400.72 0 400.72-16.1Q400.72-18.1 398.32-18.1L398.32-18.1 387.42-18.1Q386.47-18.1 386.19-17.93 385.92-17.75 385.92-17L385.92-17 385.92 0ZM428.72 0L418.67 0Q416.17 0 414.82-0.65 413.47-1.3 412.89-2.3 412.32-3.3 412.19-4.4 412.07-5.5 412.07-6.4L412.07-6.4 412.07-16Q412.07-16.75 412.19-17.82 412.32-18.9 412.89-19.95 413.47-21 414.84-21.7 416.22-22.4 418.67-22.4L418.67-22.4 425.62-22.4Q431.87-22.4 434.49-22.08 437.12-21.75 437.12-21.4L437.12-21.4 436.12-17.6Q434.72-17.7 432.57-17.82 430.42-17.95 427.94-18.03 425.47-18.1 423.12-18.1L423.12-18.1 420.57-18.1Q418.17-18.1 418.17-16.1L418.17-16.1 418.17-6.3Q418.12-4.3 420.57-4.3L420.57-4.3 423.12-4.3Q425.82-4.3 428.39-4.38 430.97-4.45 433.12-4.58 435.27-4.7 436.57-4.8L436.57-4.8 438.57-1.55Q438.57 0 428.72 0L428.72 0ZM458.21 0L448.16 0Q445.66 0 444.31-0.65 442.96-1.3 442.39-2.3 441.81-3.3 441.69-4.4 441.56-5.5 441.56-6.4L441.56-6.4 441.56-16Q441.56-16.75 441.69-17.82 441.81-18.9 442.39-19.95 442.96-21 444.34-21.7 445.71-22.4 448.16-22.4L448.16-22.4 458.91-22.4Q462.21-22.4 464.09-21.78 465.96-21.15 466.74-19.75 467.51-18.35 467.51-16L467.51-16 467.51-8.6 458.76-8.6Q454.26-8.6 451.44-8.8 448.61-9 447.66-9.05L447.66-9.05 447.66-6.3Q447.61-4.3 450.06-4.3L450.06-4.3 452.61-4.3Q455.31-4.3 457.89-4.38 460.46-4.45 462.61-4.58 464.76-4.7 466.06-4.8L466.06-4.8 468.06-1.55Q468.06 0 458.21 0L458.21 0ZM447.66-16.1L447.66-12.9 461.41-12.9 461.41-16.1Q461.41-17.1 461.19-17.5 460.96-17.9 459.86-18 458.76-18.1 456.11-18.1L456.11-18.1 450.06-18.1Q447.66-18.1 447.66-16.1L447.66-16.1ZM494.31 0L492.76 0Q488.96 0 487.56-1.6 486.16-3.2 486.16-6.4L486.16-6.4 486.16-18.1 482.06-18.1 482.06-22.4 484.16-22.4Q485.11-22.4 485.53-22.7 485.96-23 486.16-23.9L486.16-23.9 487.16-29.25 492.26-29.25 492.26-22.4 502.66-22.4 502.66-18.1 492.26-18.1 492.26-6.35Q492.26-5.1 492.86-4.7 493.46-4.3 494.66-4.3L494.66-4.3 501.71-4.3 502.21-0.5Q501.16-0.35 499.01-0.18 496.86 0 494.31 0L494.31 0ZM512.76 0L506.66 0 506.66-22.4 510.76-22.4 512.66-21.4Q513.96-22.1 515.46-22.5 516.96-22.9 519.26-22.9L519.26-22.9Q522.91-22.9 525.18-22.1 527.46-21.3 528.21-20.9L528.21-20.9 526.46-16.55Q525.86-16.85 524.48-17.32 523.11-17.8 521.26-18.2 519.41-18.6 517.21-18.6L517.21-18.6 516.66-18.6Q514.26-18.6 513.53-17.65 512.81-16.7 512.76-14.5L512.76-14.5 512.76 0ZM538.65 0L536.15 0Q532.35 0 530.65-1.78 528.95-3.55 528.95-6.65L528.95-6.65Q528.95-9.9 530.73-11.65 532.5-13.4 536.15-13.4L536.15-13.4 538.7-13.4Q542.45-13.4 545.45-13.2 548.45-13 550.4-12.8L550.4-12.8 550.4-16.1Q550.4-16.55 550.3-17.03 550.2-17.5 549.7-17.8 549.2-18.1 548-18.1L548-18.1 545.5-18.1Q540.05-18.1 536.4-17.93 532.75-17.75 531.45-17.6L531.45-17.6 530.9-21.4Q530.9-22.1 534.7-22.25 538.5-22.4 547.4-22.4L547.4-22.4 549.9-22.4Q552.4-22.4 553.75-21.7 555.1-21 555.68-19.95 556.25-18.9 556.38-17.82 556.5-16.75 556.5-16L556.5-16 556.5 0 552.4 0 550.45-1Q548.35-0.65 545.4-0.33 542.45 0 538.65 0L538.65 0ZM537.45-4.3L537.45-4.3 548.9-4.3Q550-4.3 550.2-4.5 550.4-4.7 550.4-5.75L550.4-5.75 550.4-9.6 537.45-9.6Q536.1-9.6 535.58-8.95 535.05-8.3 535.05-6.9L535.05-6.9Q535.05-5.5 535.65-4.9 536.25-4.3 537.45-4.3ZM578.4 0L568.35 0Q565.85 0 564.5-0.65 563.15-1.3 562.57-2.3 562-3.3 561.87-4.4 561.75-5.5 561.75-6.4L561.75-6.4 561.75-16Q561.75-16.75 561.87-17.82 562-18.9 562.57-19.95 563.15-21 564.52-21.7 565.9-22.4 568.35-22.4L568.35-22.4 575.3-22.4Q581.55-22.4 584.17-22.08 586.8-21.75 586.8-21.4L586.8-21.4 585.8-17.6Q584.4-17.7 582.25-17.82 580.1-17.95 577.62-18.03 575.15-18.1 572.8-18.1L572.8-18.1 570.25-18.1Q567.85-18.1 567.85-16.1L567.85-16.1 567.85-6.3Q567.8-4.3 570.25-4.3L570.25-4.3 572.8-4.3Q575.5-4.3 578.07-4.38 580.65-4.45 582.8-4.58 584.95-4.7 586.25-4.8L586.25-4.8 588.25-1.55Q588.25 0 578.4 0L578.4 0ZM615.7 0.5L615.7 0.5Q613.6 0.5 612.12 0 610.65-0.5 609-2.15L609-2.15Q608.85-2.3 608.2-2.95 607.55-3.6 606.77-4.4 606-5.2 605.35-5.85 604.7-6.5 604.5-6.7L604.5-6.7Q603.25-7.95 602.12-8.65 601-9.35 599.35-9.35L599.35-9.35Q598.25-9.35 598.05-9.15 597.85-8.95 597.85-7.8L597.85-7.8 597.85 0 591.75 0 591.75-31.65 597.85-31.65 597.85-13.65 599.45-13.65Q600.35-13.65 601.05-14.35L601.05-14.35Q601.5-14.8 602.75-16.15 604-17.5 605.57-19.2 607.15-20.9 608.45-22.35L608.45-22.35 615.8-22.35 615-20.8Q613.85-19.6 612.5-18.28 611.15-16.95 609.87-15.73 608.6-14.5 607.55-13.58 606.5-12.65 605.95-12.35L605.95-12.35Q607.45-11.55 608.65-10.53 609.85-9.5 611.25-8.22 612.65-6.95 614.6-5.35L614.6-5.35Q616.35-3.95 617.85-3.73 619.35-3.5 619.65-3.5L619.65-3.5 618.75 0Q618.25 0.15 617.4 0.33 616.55 0.5 615.7 0.5ZM626.19-25.55L626.19-25.55Q624.34-25.55 623.49-26.3 622.64-27.05 622.64-28.8L622.64-28.8Q622.64-30.6 623.47-31.33 624.29-32.05 626.19-32.05L626.19-32.05Q628.09-32.05 628.94-31.33 629.79-30.6 629.79-28.8L629.79-28.8Q629.79-27.1 628.94-26.33 628.09-25.55 626.19-25.55ZM629.24 0L623.14 0 623.14-22.4 629.24-22.4 629.24 0ZM641.89 0L635.79 0 635.79-22.4 639.89-22.4 641.89-21.4Q643.99-21.8 646.94-22.1 649.89-22.4 653.69-22.4L653.69-22.4 656.19-22.4Q658.69-22.4 660.04-21.7 661.39-21 661.97-19.95 662.54-18.9 662.67-17.82 662.79-16.75 662.79-16L662.79-16 662.79 0 656.69 0 656.69-16.1Q656.69-18.1 654.29-18.1L654.29-18.1 643.39-18.1Q642.44-18.1 642.17-17.93 641.89-17.75 641.89-17L641.89-17 641.89 0ZM687.49 8.8L684.99 8.8Q679.49 8.8 676.04 8.7 672.59 8.6 670.74 8.4 668.89 8.2 668.21 7.9 667.54 7.6 667.54 7.25L667.54 7.25 669.04 3.5Q669.84 3.75 671.86 4.13 673.89 4.5 677.04 4.5L677.04 4.5 685.59 4.5Q687.44 4.5 688.21 3.95 688.99 3.4 688.99 2L688.99 2 688.99-1Q686.84-0.6 683.91-0.3 680.99 0 677.19 0L677.19 0 674.69 0Q672.19 0 670.84-0.65 669.49-1.3 668.91-2.3 668.34-3.3 668.21-4.4 668.09-5.5 668.09-6.4L668.09-6.4 668.09-16Q668.09-16.75 668.21-17.82 668.34-18.9 668.91-19.95 669.49-21 670.86-21.7 672.24-22.4 674.69-22.4L674.69-22.4 677.24-22.4Q682.49-22.4 685.41-22.2 688.34-22 689.69-21.75L689.69-21.75 690.99-22.4 695.09-22.4 695.09 2.4Q695.09 3.3 694.81 4.4 694.54 5.5 693.74 6.5 692.94 7.5 691.44 8.15 689.94 8.8 687.49 8.8L687.49 8.8ZM676.59-4.3L676.59-4.3 687.44-4.3Q688.59-4.3 688.79-4.5 688.99-4.7 688.99-5.8L688.99-5.8 688.99-17.75Q687.29-17.85 684.69-17.98 682.09-18.1 679.14-18.1L679.14-18.1 676.59-18.1Q674.19-18.1 674.19-16.1L674.19-16.1 674.19-6.3Q674.14-4.3 676.59-4.3Z" opacity="1" transform="matrix(1,0,0,1,0,0)" fill="#000000" class="undefined-text-1" data-fill-palette-color="secondary" id="text-1"></path></svg></g></svg></g></svg></g></svg></g><g transform="matrix(1,0,0,1,143.44334665128372,0)"><svg viewBox="0 0 108.63330669743253 101.45552638290229" height="101.45552638290229" width="108.63330669743253"><g><svg xmlns="http://www.w3.org/2000/svg" xmlns:xlink="http://www.w3.org/1999/xlink" version="1.1" x="8" y="0" viewBox="8 6 84 92" enable-background="new 0 0 100 100" xml:space="preserve" height="101.45552638290229" width="92.63330669743253" class="icon-icon-0" data-fill-palette-color="accent" id="icon-0"><path fill="none" d="M36.558 37.254c0.282 0.152 0.6 0.246 0.942 0.246 0.42 0 0.809-0.131 1.131-0.353 0.287-0.197 0.515-0.47 0.667-0.787C39.424 36.099 39.5 35.81 39.5 35.5c0-1.105-0.896-2-2-2s-2 0.895-2 2c0 0.207 0.04 0.401 0.098 0.588C35.754 36.593 36.101 37.008 36.558 37.254z"></path><path fill="none" d="M58.702 73.64C58.576 73.901 58.5 74.19 58.5 74.5c0 1.105 0.896 2 2 2s2-0.895 2-2c0-0.394-0.117-0.758-0.313-1.066-0.236-0.373-0.593-0.658-1.015-0.81C60.961 72.549 60.737 72.5 60.5 72.5c-0.42 0-0.81 0.131-1.131 0.353C59.082 73.05 58.854 73.322 58.702 73.64z"></path><path fill="none" d="M75 58.392l6.828-8.016c-0.422-0.151-0.778-0.437-1.015-0.81L75 56.392V58.392z"></path><path fill="none" d="M35.598 36.088L31 40.087v2l5.558-4.833C36.101 37.008 35.754 36.593 35.598 36.088z"></path><path fill="none" d="M62.187 73.434L69 65.435v-2l-7.828 9.189C61.594 72.775 61.95 73.061 62.187 73.434z"></path><path fill="none" d="M38.631 37.147L47 52.363v-2l-7.702-14.003C39.146 36.677 38.918 36.95 38.631 37.147z"></path><path fill="none" d="M59.369 72.853L53 61.272v2l5.702 10.367C58.854 73.322 59.082 73.05 59.369 72.853z"></path><path d="M37.5 37.5c-0.343 0-0.66-0.094-0.942-0.246L31 42.087V98h16V52.363l-8.369-15.216C38.309 37.369 37.92 37.5 37.5 37.5z" fill="#000000" data-fill-palette-color="accent"></path><path d="M31 40.087l4.598-3.999C35.54 35.901 35.5 35.707 35.5 35.5c0-1.105 0.896-2 2-2s2 0.895 2 2c0 0.31-0.076 0.599-0.202 0.861L47 50.364V23H31V40.087z" fill="#000000" data-fill-palette-color="accent"></path><path d="M62.5 74.5c0 1.105-0.896 2-2 2s-2-0.895-2-2c0-0.31 0.076-0.599 0.202-0.86L53 63.272V98h16V65.435l-6.813 7.999C62.383 73.742 62.5 74.106 62.5 74.5z" fill="#000000" data-fill-palette-color="accent"></path><path d="M53 61.272l6.369 11.58C59.69 72.631 60.08 72.5 60.5 72.5c0.237 0 0.461 0.049 0.672 0.124L69 63.435V6H53V61.272z" fill="#000000" data-fill-palette-color="accent"></path><path d="M75 98h17V59.552l-8.165-9.572C83.48 50.3 83.016 50.5 82.5 50.5c-0.237 0-0.461-0.048-0.672-0.124L75 58.392V98z" fill="#000000" data-fill-palette-color="accent"></path><path d="M92 57.552V35H75v21.392l5.813-6.825C80.617 49.257 80.5 48.894 80.5 48.5c0-1.105 0.896-2 2-2s2 0.895 2 2c0 0.079-0.015 0.154-0.023 0.231L92 57.552z" fill="#000000" data-fill-palette-color="accent"></path><path d="M17.5 54.5c0 1.105-0.896 2-2 2s-2-0.895-2-2c0-0.463 0.164-0.884 0.428-1.223L8 38.231V98h17V47.304l-7.598 6.607C17.46 54.099 17.5 54.294 17.5 54.5z" fill="#000000" data-fill-palette-color="accent"></path><path d="M8 36.231l6.515 16.539c0.292-0.167 0.625-0.27 0.985-0.27 0.343 0 0.66 0.094 0.942 0.246L25 45.304V6H8V36.231z" fill="#000000" data-fill-palette-color="accent"></path></svg></g></svg></g><g><rect width="143.44334665128372" height="4.259376328967787" y="96.1961500539345" x="252.07665334871626" fill="#000000" data-fill-palette-color="accent"></rect><rect width="143.44334665128372" height="4.259376328967787" y="96.1961500539345" x="0" fill="#000000" data-fill-palette-color="accent"></rect><rect width="143.44334665128372" height="4.259376328967787" y="87.67739739599892" x="252.07665334871626" fill="#000000" data-fill-palette-color="accent"></rect><rect width="143.44334665128372" height="4.259376328967787" y="87.67739739599892" x="0" fill="#000000" data-fill-palette-color="accent"></rect></g></svg></g></svg><rect width="395.52" height="186.01782922365618" fill="none" stroke="none" visibility="hidden"></rect></g></svg></g></svg>