<svg xmlns="http://www.w3.org/2000/svg" version="1.1" xmlns:xlink="http://www.w3.org/1999/xlink" xmlns:svgjs="http://svgjs.dev/svgjs" width="1000" height="1000" viewBox="0 0 1000 1000"><rect width="1000" height="1000" fill="#212529"></rect><g transform="matrix(0.7,0,0,0.7,149.57575757575756,390.14555072147743)"><svg xmlns="http://www.w3.org/2000/svg" version="1.1" xmlns:xlink="http://www.w3.org/1999/xlink" xmlns:svgjs="http://svgjs.com/svgjs" viewBox="0 0 396 124" data-background-color="#212529" preserveAspectRatio="xMidYMid meet" height="313" width="1000"><defs></defs><g id="tight-bounds" transform="matrix(1,0,0,1,0.2400000000000091,0.17230356246827228)"><svg viewBox="0 0 395.52 123.65539287506344" height="123.65539287506344" width="395.52"><g><svg viewBox="0 0 395.52 123.65539287506344" height="123.65539287506344" width="395.52"><g transform="matrix(1,0,0,1,0,76.42399360511733)"><svg viewBox="0 0 395.52 47.23139926994611" height="47.23139926994611" width="395.52"><g><svg viewBox="0 0 395.52 47.23139926994611" height="47.23139926994611" width="395.52"><g><svg viewBox="0 0 395.52 47.23139926994611" height="47.23139926994611" width="395.52"><g transform="matrix(1,0,0,1,0,0)"><svg width="395.52" viewBox="3.85 -34 287.62 34.35" height="47.23139926994611" data-palette-color="#57ab26"><path d="M7.9-15.05L7.9-3.55 22.65-3.55 22.65 0 3.85 0 3.85-33.7 22.4-33.7 22.4-30.15 7.9-30.15 7.9-18.6 20.7-18.6 20.7-15.05 7.9-15.05ZM32.95-33.7L32.95-3.65 47.3-3.65 47.3 0 28.9 0 28.9-33.7 32.95-33.7ZM57.1 0L53.05 0 53.05-33.7 57.1-33.7 57.1 0ZM62.14-33.7L84.39-33.7 84.39-30.15 75.29-30.15 75.29 0 71.24 0 71.24-30.15 62.14-30.15 62.14-33.7ZM93.24-15.05L93.24-3.55 107.99-3.55 107.99 0 89.19 0 89.19-33.7 107.74-33.7 107.74-30.15 93.24-30.15 93.24-18.6 106.04-18.6 106.04-15.05 93.24-15.05ZM130.78 0L126.74 0 126.74-33.7 130.78-33.7 130.78 0ZM142.83 0L138.78 0 138.78-33.7 143.88-33.7 152.33-19.5 160.88-4.9Q160.68-9.75 160.68-19.45L160.68-19.45 160.68-33.7 164.73-33.7 164.73 0 159.63 0 151.18-14.1Q148.63-18.35 146.48-22.03 144.33-25.7 143.43-27.3L143.43-27.3 142.58-28.85Q142.83-23.65 142.83-14.2L142.83-14.2 142.83 0ZM190.08-32.45L190.08-32.45 190.08-28.2Q187.03-30.2 182.78-30.2L182.78-30.2Q179.73-30.2 177.93-28.78 176.13-27.35 176.13-25.05L176.13-25.05Q176.13-23.85 176.61-22.9 177.08-21.95 178.28-21.13 179.48-20.3 180.33-19.88 181.18-19.45 182.98-18.65L182.98-18.65Q184.68-17.9 185.58-17.48 186.48-17.05 187.91-16.13 189.33-15.2 190.06-14.33 190.78-13.45 191.36-12.03 191.93-10.6 191.93-8.95L191.93-8.95Q191.93-4.5 188.88-2.08 185.83 0.35 181.03 0.35L181.03 0.35Q175.73 0.35 172.03-1.8L172.03-1.8 172.03-6.15Q175.68-3.4 180.93-3.4L180.93-3.4Q184.08-3.4 185.88-4.8 187.68-6.2 187.68-8.85L187.68-8.85Q187.68-9.95 187.26-10.83 186.83-11.7 185.86-12.43 184.88-13.15 184.01-13.63 183.13-14.1 181.63-14.8L181.63-14.8Q181.33-14.95 180.73-15.2L180.73-15.2Q178.58-16.15 177.46-16.75 176.33-17.35 174.81-18.53 173.28-19.7 172.58-21.25 171.88-22.8 171.88-24.85L171.88-24.85Q171.88-29.15 174.96-31.58 178.03-34 182.68-34L182.68-34Q187.03-34 190.08-32.45ZM202.98 0L198.93 0 198.93-33.7 202.98-33.7 202.98 0ZM215.08-30.1L215.08-3.55 221.13-3.55Q227.38-3.55 230.58-7.43 233.78-11.3 233.78-17.1L233.78-17.1Q233.78-22.6 230.2-26.35 226.63-30.1 220.93-30.1L220.93-30.1 215.08-30.1ZM210.98 0L210.98-33.7 220.98-33.7Q228.43-33.7 233.2-29.08 237.98-24.45 237.98-17.1L237.98-17.1Q237.98-9.8 233.55-4.9 229.13 0 221.18 0L221.18 0 210.98 0ZM248.07-15.05L248.07-3.55 262.82-3.55 262.82 0 244.02 0 244.02-33.7 262.57-33.7 262.57-30.15 248.07-30.15 248.07-18.6 260.87-18.6 260.87-15.05 248.07-15.05ZM277.77-30.2L273.12-30.2 273.12-16.75 278.22-16.75Q281.67-16.75 283.5-18.63 285.32-20.5 285.32-23.45L285.32-23.45Q285.32-30.2 277.77-30.2L277.77-30.2ZM282.62-13.95L291.47 0 286.62 0 278.37-13.3 277.97-13.3 273.12-13.3 273.12 0 269.07 0 269.07-33.7 277.52-33.7Q283.37-33.7 286.4-30.95 289.42-28.2 289.42-23.35L289.42-23.35Q289.32-19.85 287.57-17.4 285.82-14.95 282.62-13.95L282.62-13.95Z" opacity="1" transform="matrix(1,0,0,1,0,0)" fill="#57ab26" class="undefined-text-0" data-fill-palette-color="primary" id="text-0"></path></svg></g></svg></g></svg></g></svg></g><g transform="matrix(1,0,0,1,159.96109413886137,0)"><svg viewBox="0 0 75.59781172227721 65.27379379106553" height="65.27379379106553" width="75.59781172227721"><g><svg xmlns="http://www.w3.org/2000/svg" xmlns:xlink="http://www.w3.org/1999/xlink" version="1.1" x="7.9999999999999964" y="0" viewBox="8 6 84 92" enable-background="new 0 0 100 100" xml:space="preserve" height="65.27379379106553" width="59.59781172227722" class="icon-icon-0" data-fill-palette-color="accent" id="icon-0"><path fill="none" d="M36.558 37.254c0.282 0.152 0.6 0.246 0.942 0.246 0.42 0 0.809-0.131 1.131-0.353 0.287-0.197 0.515-0.47 0.667-0.787C39.424 36.099 39.5 35.81 39.5 35.5c0-1.105-0.896-2-2-2s-2 0.895-2 2c0 0.207 0.04 0.401 0.098 0.588C35.754 36.593 36.101 37.008 36.558 37.254z"></path><path fill="none" d="M58.702 73.64C58.576 73.901 58.5 74.19 58.5 74.5c0 1.105 0.896 2 2 2s2-0.895 2-2c0-0.394-0.117-0.758-0.313-1.066-0.236-0.373-0.593-0.658-1.015-0.81C60.961 72.549 60.737 72.5 60.5 72.5c-0.42 0-0.81 0.131-1.131 0.353C59.082 73.05 58.854 73.322 58.702 73.64z"></path><path fill="none" d="M75 58.392l6.828-8.016c-0.422-0.151-0.778-0.437-1.015-0.81L75 56.392V58.392z"></path><path fill="none" d="M35.598 36.088L31 40.087v2l5.558-4.833C36.101 37.008 35.754 36.593 35.598 36.088z"></path><path fill="none" d="M62.187 73.434L69 65.435v-2l-7.828 9.189C61.594 72.775 61.95 73.061 62.187 73.434z"></path><path fill="none" d="M38.631 37.147L47 52.363v-2l-7.702-14.003C39.146 36.677 38.918 36.95 38.631 37.147z"></path><path fill="none" d="M59.369 72.853L53 61.272v2l5.702 10.367C58.854 73.322 59.082 73.05 59.369 72.853z"></path><path d="M37.5 37.5c-0.343 0-0.66-0.094-0.942-0.246L31 42.087V98h16V52.363l-8.369-15.216C38.309 37.369 37.92 37.5 37.5 37.5z" fill="#57ab26" data-fill-palette-color="accent"></path><path d="M31 40.087l4.598-3.999C35.54 35.901 35.5 35.707 35.5 35.5c0-1.105 0.896-2 2-2s2 0.895 2 2c0 0.31-0.076 0.599-0.202 0.861L47 50.364V23H31V40.087z" fill="#57ab26" data-fill-palette-color="accent"></path><path d="M62.5 74.5c0 1.105-0.896 2-2 2s-2-0.895-2-2c0-0.31 0.076-0.599 0.202-0.86L53 63.272V98h16V65.435l-6.813 7.999C62.383 73.742 62.5 74.106 62.5 74.5z" fill="#57ab26" data-fill-palette-color="accent"></path><path d="M53 61.272l6.369 11.58C59.69 72.631 60.08 72.5 60.5 72.5c0.237 0 0.461 0.049 0.672 0.124L69 63.435V6H53V61.272z" fill="#57ab26" data-fill-palette-color="accent"></path><path d="M75 98h17V59.552l-8.165-9.572C83.48 50.3 83.016 50.5 82.5 50.5c-0.237 0-0.461-0.048-0.672-0.124L75 58.392V98z" fill="#57ab26" data-fill-palette-color="accent"></path><path d="M92 57.552V35H75v21.392l5.813-6.825C80.617 49.257 80.5 48.894 80.5 48.5c0-1.105 0.896-2 2-2s2 0.895 2 2c0 0.079-0.015 0.154-0.023 0.231L92 57.552z" fill="#57ab26" data-fill-palette-color="accent"></path><path d="M17.5 54.5c0 1.105-0.896 2-2 2s-2-0.895-2-2c0-0.463 0.164-0.884 0.428-1.223L8 38.231V98h17V47.304l-7.598 6.607C17.46 54.099 17.5 54.294 17.5 54.5z" fill="#57ab26" data-fill-palette-color="accent"></path><path d="M8 36.231l6.515 16.539c0.292-0.167 0.625-0.27 0.985-0.27 0.343 0 0.66 0.094 0.942 0.246L25 45.304V6H8V36.231z" fill="#57ab26" data-fill-palette-color="accent"></path></svg><g></g></g></svg></g><g><rect width="159.96109413886137" height="4.259376328967787" y="60.01441746209774" x="235.55890586113858" fill="#57ab26" data-fill-palette-color="accent"></rect><rect width="159.96109413886137" height="4.259376328967787" y="60.01441746209774" x="0" fill="#57ab26" data-fill-palette-color="accent"></rect><rect width="159.96109413886137" height="4.259376328967787" y="51.49566480416217" x="235.55890586113858" fill="#57ab26" data-fill-palette-color="accent"></rect><rect width="159.96109413886137" height="4.259376328967787" y="51.49566480416217" x="0" fill="#57ab26" data-fill-palette-color="accent"></rect></g></svg></g></svg><rect width="395.52" height="123.65539287506344" fill="none" stroke="none" visibility="hidden"></rect></g></svg></g></svg>